<svg width="49" height="36" viewBox="0 0 49 36" fill="none" xmlns="http://www.w3.org/2000/svg">
<path d="M41.4816 2.9863C38.3044 1.58086 34.9517 0.577777 31.5072 0.00205036C31.476 -0.00301532 31.4439 0.00135974 31.4154 0.0145741C31.3869 0.0277885 31.3633 0.0491932 31.3479 0.0758449C30.9161 0.813791 30.4384 1.77902 30.1046 2.53468C26.3917 1.99158 22.615 1.99158 18.9021 2.53468C18.5297 1.69289 18.1085 0.87198 17.6403 0.0758449C17.6246 0.0494851 17.601 0.028327 17.5726 0.0151551C17.5441 0.00198316 17.5123 -0.00258535 17.4811 0.00205036C14.0358 0.574697 10.6824 1.5783 7.50663 2.9863C7.47945 2.9963 7.45672 3.01508 7.44231 3.03944C1.09076 12.187 -0.651788 21.1103 0.20264 29.9213C0.205703 29.9627 0.233265 30.004 0.266952 30.0306C3.96557 32.6713 8.10256 34.6875 12.5015 35.9932C12.5326 36.0026 12.5659 36.0023 12.5968 35.9922C12.6276 35.9821 12.6543 35.9628 12.673 35.9371C13.6162 34.6973 14.4554 33.3897 15.1781 32.0142C15.1932 31.9858 15.1983 31.9536 15.1928 31.9222C15.1873 31.8908 15.1714 31.862 15.1475 31.84C15.1317 31.8256 15.1129 31.8145 15.0924 31.8075C13.7729 31.3188 12.4951 30.7316 11.2704 30.0512C11.2362 30.0325 11.2108 30.0019 11.1994 29.9656C11.1879 29.9293 11.1915 29.8902 11.2091 29.8564C11.2196 29.8344 11.2353 29.8152 11.2551 29.8003C11.5123 29.6144 11.7696 29.4195 12.0146 29.2247C12.0362 29.2079 12.0622 29.1972 12.0897 29.1935C12.1172 29.1899 12.1452 29.1935 12.1708 29.2041C20.1914 32.7344 28.8735 32.7344 36.7961 29.2041C36.8225 29.193 36.8516 29.1891 36.8802 29.1927C36.9088 29.1964 36.9358 29.2074 36.9584 29.2247C37.2034 29.4195 37.4606 29.6144 37.7179 29.8003C37.7387 29.815 37.7555 29.8344 37.7666 29.8569C37.7778 29.8793 37.7829 29.9041 37.7817 29.9289C37.7805 29.9538 37.7729 29.978 37.7597 29.9993C37.7464 30.0207 37.7278 30.0385 37.7056 30.0512C36.4838 30.7378 35.2043 31.3243 33.8806 31.8046C33.8595 31.8119 33.8403 31.8237 33.8244 31.839C33.8086 31.8543 33.7964 31.8728 33.7887 31.8931C33.7816 31.9128 33.7788 31.9337 33.7804 31.9546C33.782 31.9754 33.7879 31.9956 33.7979 32.0142C34.5329 33.3867 35.3751 34.6973 36.2999 35.9371C36.3186 35.9628 36.3453 35.9821 36.3762 35.9922C36.407 36.0023 36.4404 36.0026 36.4714 35.9932C40.8778 34.6915 45.0215 32.6751 48.7244 30.0306C48.7429 30.0182 48.7583 30.0019 48.7695 29.983C48.7806 29.9641 48.7872 29.943 48.7887 29.9213C49.8116 19.7347 47.0768 10.8853 41.5429 3.04239C41.5373 3.02943 41.529 3.01775 41.5184 3.00809C41.5079 2.99843 41.4954 2.99101 41.4816 2.9863ZM16.3755 24.555C13.9592 24.555 11.9717 22.4179 11.9717 19.7967C11.9717 17.1726 13.9225 15.0355 16.3755 15.0355C18.8469 15.0355 20.8161 17.1903 20.7794 19.7967C20.7794 22.4179 18.8286 24.555 16.3755 24.555ZM32.6556 24.555C30.2424 24.555 28.2518 22.4179 28.2518 19.7967C28.2518 17.1726 30.2026 15.0355 32.6556 15.0355C35.127 15.0355 37.0993 17.1903 37.0594 19.7967C37.0594 22.4179 35.127 24.555 32.6556 24.555Z" fill="white"/>
</svg>
