<svg width="46" height="36" viewBox="0 0 46 36" fill="none" xmlns="http://www.w3.org/2000/svg">
<path d="M46 4.23529C44.3069 4.97647 42.4818 5.46353 40.5908 5.69647C42.5258 4.57412 44.021 2.79529 44.7247 0.65647C42.8996 1.71529 40.8767 2.45647 38.7438 2.88C37.0067 1.05882 34.566 0 31.7954 0C26.6281 0 22.4063 4.06588 22.4063 9.08471C22.4063 9.80471 22.4943 10.5035 22.6482 11.16C14.8203 10.7788 7.84991 7.15765 3.21033 1.67294C2.39675 3.00706 1.93499 4.57412 1.93499 6.22588C1.93499 9.38118 3.58413 12.1765 6.1348 13.7647C4.57361 13.7647 3.12237 13.3412 1.84704 12.7059V12.7694C1.84704 17.1741 5.10134 20.8588 9.41109 21.6847C8.02741 22.0494 6.57478 22.1001 5.1673 21.8329C5.76453 23.6382 6.93416 25.2178 8.5118 26.3497C10.0894 27.4817 11.9957 28.109 13.9627 28.1435C10.6284 30.6856 6.4954 32.0597 2.24283 32.04C1.49522 32.04 0.74761 31.9976 0 31.9129C4.17782 34.4965 9.14723 36 14.4685 36C31.7954 36 41.3165 22.1506 41.3165 10.1435C41.3165 9.74118 41.3164 9.36 41.2945 8.95765C43.1415 7.68706 44.7247 6.07765 46 4.23529Z" fill="white"/>
</svg>
