<svg width="46" height="31" viewBox="0 0 46 31" fill="none" xmlns="http://www.w3.org/2000/svg">
<path d="M45.04 4.84252C44.7781 3.90481 44.2647 3.04967 43.5511 2.36269C42.8375 1.67571 41.9488 1.18099 40.9739 0.928026C37.3853 1.88305e-07 23 0 23 0C23 0 8.61473 -1.88305e-07 5.02612 0.923089C4.05077 1.17523 3.1616 1.66968 2.44789 2.35679C1.73417 3.04389 1.22105 3.89947 0.960045 4.83758C-1.95844e-07 8.29299 0 15.5 0 15.5C0 15.5 -1.95844e-07 22.707 0.960045 26.1575C1.48884 28.0629 3.04955 29.5635 5.02612 30.072C8.61473 31 23 31 23 31C23 31 37.3853 31 40.9739 30.072C42.9556 29.5635 44.5112 28.0629 45.04 26.1575C46 22.707 46 15.5 46 15.5C46 15.5 46 8.29299 45.04 4.84252ZM18.4308 22.1147V8.88535L30.3415 15.4506L18.4308 22.1147Z" fill="white"/>
</svg>
